<svg width="19" height="19" viewBox="0 0 19 19" fill="none" xmlns="http://www.w3.org/2000/svg">
<circle cx="9.5" cy="9.5" r="9.5" fill="#FFE926"/>
<path d="M8.5625 4.75H10.4375C10.6042 4.75 10.6875 4.78519 10.6875 4.85556V14.1444C10.6875 14.2148 10.6042 14.25 10.4375 14.25H8.5625C8.39583 14.25 8.3125 14.2148 8.3125 14.1444V4.85556C8.3125 4.78519 8.39583 4.75 8.5625 4.75Z" fill="black"/>
<path d="M4.75 10.4375V8.5625C4.75 8.39583 4.78519 8.3125 4.85556 8.3125H14.1444C14.2148 8.3125 14.25 8.39583 14.25 8.5625V10.4375C14.25 10.6042 14.2148 10.6875 14.1444 10.6875H4.85556C4.78519 10.6875 4.75 10.6042 4.75 10.4375Z" fill="black"/>
</svg>
