<svg width="16" height="15" viewBox="0 0 16 15" fill="none" xmlns="http://www.w3.org/2000/svg">
<path d="M15 8.37878C15.5523 8.37878 16 7.93107 16 7.37878C16 6.8265 15.5523 6.37878 15 6.37878L15 8.37878ZM0.292893 6.67168C-0.0976316 7.06221 -0.0976313 7.69537 0.292894 8.0859L6.65686 14.4499C7.04738 14.8404 7.68055 14.8404 8.07107 14.4499C8.46159 14.0593 8.46159 13.4262 8.07107 13.0356L2.41421 7.37879L8.07107 1.72193C8.46159 1.33141 8.46159 0.698243 8.07107 0.307719C7.68054 -0.0828056 7.04738 -0.0828054 6.65685 0.307719L0.292893 6.67168ZM15 6.37878L1 6.37879L1 8.37879L15 8.37878L15 6.37878Z" fill="#FFE926"/>
</svg>
