<svg width="27" height="32" viewBox="0 0 27 32" fill="none" xmlns="http://www.w3.org/2000/svg">
<path d="M23.25 9.93104H3.75C2.88831 9.93191 2.06216 10.281 1.45285 10.9016C0.843546 11.5222 0.50086 12.3637 0.5 13.2414V19.8621C0.500574 20.4472 0.729031 21.0082 1.13524 21.4219C1.54144 21.8357 2.09221 22.0684 2.66667 22.069V29.7931C2.66724 30.3782 2.8957 30.9392 3.3019 31.353C3.70811 31.7667 4.25887 31.9994 4.83333 32H9.16667C9.74113 31.9994 10.2919 31.7667 10.6981 31.353C11.1043 30.9392 11.3328 30.3782 11.3333 29.7931V16.5517H9.16667V29.7931H4.83333V19.8621H2.66667V13.2414C2.66667 12.9487 2.7808 12.6681 2.98397 12.4611C3.18713 12.2542 3.46268 12.1379 3.75 12.1379H23.25C23.5373 12.1379 23.8129 12.2542 24.016 12.4611C24.2192 12.6681 24.3333 12.9487 24.3333 13.2414V19.8621H22.1667V29.7931H17.8333V16.5517H15.6667V29.7931C15.6672 30.3782 15.8957 30.9392 16.3019 31.353C16.7081 31.7667 17.2589 31.9994 17.8333 32H22.1667C22.7411 31.9994 23.2919 31.7667 23.6981 31.353C24.1043 30.9392 24.3328 30.3782 24.3333 29.7931V22.069C24.9078 22.0684 25.4586 21.8357 25.8648 21.4219C26.271 21.0082 26.4994 20.4472 26.5 19.8621V13.2414C26.4991 12.3637 26.1565 11.5222 25.5471 10.9016C24.9378 10.281 24.1117 9.93191 23.25 9.93104ZM7 8.82759C6.14295 8.82759 5.30514 8.56872 4.59253 8.08373C3.87992 7.59873 3.3245 6.9094 2.99652 6.10288C2.66854 5.29636 2.58273 4.4089 2.74993 3.55271C2.91713 2.69651 3.32984 1.91005 3.93587 1.29277C4.5419 0.675492 5.31402 0.255119 6.15461 0.0848118C6.99519 -0.0854954 7.86648 0.00191241 8.6583 0.335982C9.45011 0.670051 10.1269 1.23578 10.603 1.96162C11.0792 2.68747 11.3333 3.54083 11.3333 4.41379C11.3322 5.58405 10.8753 6.70603 10.0629 7.53353C9.25045 8.36102 8.14892 8.82642 7 8.82759ZM7 2.2069C6.57147 2.2069 6.15257 2.33633 5.79627 2.57883C5.43996 2.82132 5.16225 3.16599 4.99826 3.56925C4.83427 3.97251 4.79136 4.41624 4.87497 4.84434C4.95857 5.27243 5.16492 5.66567 5.46794 5.97431C5.77095 6.28295 6.15701 6.49313 6.5773 6.57829C6.9976 6.66344 7.43324 6.61974 7.82915 6.4527C8.22505 6.28567 8.56344 6.0028 8.80152 5.63988C9.03959 5.27696 9.16667 4.85028 9.16667 4.41379C9.16609 3.82867 8.93764 3.26768 8.53143 2.85393C8.12523 2.44018 7.57446 2.20748 7 2.2069ZM20 8.82759C19.1429 8.82759 18.3051 8.56872 17.5925 8.08373C16.8799 7.59873 16.3245 6.9094 15.9965 6.10288C15.6685 5.29636 15.5827 4.4089 15.7499 3.55271C15.9171 2.69651 16.3298 1.91005 16.9359 1.29277C17.5419 0.675492 18.314 0.255119 19.1546 0.0848118C19.9952 -0.0854954 20.8665 0.00191241 21.6583 0.335982C22.4501 0.670051 23.1269 1.23578 23.603 1.96162C24.0792 2.68747 24.3333 3.54083 24.3333 4.41379C24.3322 5.58405 23.8753 6.70603 23.0629 7.53353C22.2505 8.36102 21.1489 8.82642 20 8.82759ZM20 2.2069C19.5715 2.2069 19.1526 2.33633 18.7963 2.57883C18.44 2.82132 18.1623 3.16599 17.9983 3.56925C17.8343 3.97251 17.7914 4.41624 17.875 4.84434C17.9586 5.27243 18.1649 5.66567 18.4679 5.97431C18.771 6.28295 19.157 6.49313 19.5773 6.57829C19.9976 6.66344 20.4332 6.61974 20.8291 6.4527C21.2251 6.28567 21.5634 6.0028 21.8015 5.63988C22.0396 5.27696 22.1667 4.85028 22.1667 4.41379C22.1661 3.82867 21.9376 3.26768 21.5314 2.85393C21.1252 2.44018 20.5745 2.20748 20 2.2069Z" fill="#CAC4D0"/>
</svg>
