<svg width="24" height="30" viewBox="0 0 24 30" fill="none" xmlns="http://www.w3.org/2000/svg">
<path d="M12.7483 12.2643C12.7483 11.9686 12.8665 11.6851 13.077 11.476C13.2875 11.2669 13.573 11.1494 13.8707 11.1494H19.1087C19.4063 11.1494 19.6918 11.2669 19.9023 11.476C20.1128 11.6851 20.2311 11.9686 20.2311 12.2643C20.2311 12.56 20.1128 12.8436 19.9023 13.0527C19.6918 13.2618 19.4063 13.3793 19.1087 13.3793H13.8707C13.573 13.3793 13.2875 13.2618 13.077 13.0527C12.8665 12.8436 12.7483 12.56 12.7483 12.2643ZM13.8707 19.3256C13.573 19.3256 13.2875 19.4431 13.077 19.6522C12.8665 19.8613 12.7483 20.1449 12.7483 20.4406C12.7483 20.7363 12.8665 21.0199 13.077 21.229C13.2875 21.438 13.573 21.5555 13.8707 21.5555H19.1087C19.4063 21.5555 19.6918 21.438 19.9023 21.229C20.1128 21.0199 20.2311 20.7363 20.2311 20.4406C20.2311 20.1449 20.1128 19.8613 19.9023 19.6522C19.6918 19.4431 19.4063 19.3256 19.1087 19.3256H13.8707ZM10.1742 11.5656C10.2845 11.4636 10.3729 11.3405 10.4343 11.2037C10.4956 11.067 10.5286 10.9193 10.5313 10.7696C10.5339 10.6199 10.5062 10.4712 10.4498 10.3324C10.3933 10.1935 10.3093 10.0674 10.2027 9.96156C10.0961 9.85569 9.96915 9.77222 9.82939 9.71615C9.68963 9.66007 9.53993 9.63253 9.38922 9.63518C9.23852 9.63782 9.08989 9.67058 8.9522 9.73152C8.81452 9.79246 8.69061 9.88032 8.58785 9.98986L6.38791 12.1751L5.68452 11.4765C5.47175 11.2795 5.19033 11.1723 4.89954 11.1774C4.60876 11.1825 4.33132 11.2995 4.12567 11.5038C3.92003 11.708 3.80223 11.9836 3.7971 12.2725C3.79197 12.5613 3.89991 12.8409 4.09817 13.0522L5.59473 14.5388C5.80518 14.7476 6.09046 14.8649 6.38791 14.8649C6.68535 14.8649 6.97063 14.7476 7.18108 14.5388L10.1742 11.5656ZM10.1742 18.1661C10.3844 18.3751 10.5025 18.6585 10.5025 18.954C10.5025 19.2494 10.3844 19.5328 10.1742 19.7419L7.18108 22.715C6.97063 22.9238 6.68535 23.0411 6.38791 23.0411C6.09046 23.0411 5.80518 22.9238 5.59473 22.715L4.09817 21.2285C3.98789 21.1264 3.89944 21.0033 3.8381 20.8665C3.77675 20.7298 3.74376 20.5821 3.7411 20.4324C3.73844 20.2827 3.76617 20.134 3.82262 19.9952C3.87907 19.8564 3.96309 19.7302 4.06968 19.6244C4.17626 19.5185 4.30322 19.435 4.44298 19.379C4.58274 19.3229 4.73244 19.2953 4.88315 19.298C5.03386 19.3006 5.18249 19.3334 5.32017 19.3943C5.45785 19.4553 5.58177 19.5431 5.68452 19.6527L6.38791 20.3514L8.58785 18.1661C8.7983 17.9573 9.08358 17.84 9.38103 17.84C9.67847 17.84 9.96375 17.9573 10.1742 18.1661ZM17.9773 3.09805C17.9145 2.25593 17.5335 1.46854 16.9106 0.893913C16.2877 0.319286 15.4691 -4.95e-05 14.619 5.75519e-09H9.38103C8.55277 2.48624e-05 7.75358 0.303274 7.13625 0.851772C6.51892 1.40027 6.12675 2.15553 6.03472 2.97317H3.39479C2.50173 2.97317 1.64526 3.32557 1.01377 3.95285C0.382291 4.58012 0.0275269 5.43089 0.0275269 6.31799V26.3869C0.0275269 27.274 0.382291 28.1248 1.01377 28.7521C1.64526 29.3793 2.50173 29.7317 3.39479 29.7317H20.6052C21.0474 29.7317 21.4853 29.6452 21.8938 29.4771C22.3024 29.309 22.6736 29.0627 22.9862 28.7521C23.2989 28.4415 23.5469 28.0727 23.7162 27.6669C23.8854 27.2611 23.9725 26.8262 23.9725 26.3869V6.31799C23.9725 5.87875 23.8854 5.4438 23.7162 5.03799C23.5469 4.63217 23.2989 4.26344 22.9862 3.95285C22.6736 3.64225 22.3024 3.39588 21.8938 3.22778C21.4853 3.05969 21.0474 2.97317 20.6052 2.97317H17.9653L17.9773 3.09805ZM17.9773 3.11589L17.9862 3.34482C17.9862 3.26752 17.9833 3.1917 17.9788 3.11589H17.9773ZM9.38103 6.68964H14.619C15.7863 6.68964 16.8144 6.09947 17.4191 5.20305H20.6052C20.9029 5.20305 21.1884 5.32052 21.3989 5.52961C21.6094 5.7387 21.7276 6.02229 21.7276 6.31799V26.3869C21.7276 26.6826 21.6094 26.9662 21.3989 27.1753C21.1884 27.3844 20.9029 27.5019 20.6052 27.5019H3.39479C3.0971 27.5019 2.81161 27.3844 2.60112 27.1753C2.39062 26.9662 2.27237 26.6826 2.27237 26.3869V6.31799C2.27237 6.02229 2.39062 5.7387 2.60112 5.52961C2.81161 5.32052 3.0971 5.20305 3.39479 5.20305H6.58096C7.18557 6.09947 8.21371 6.68964 9.38103 6.68964ZM9.38103 2.22988H14.619C14.9167 2.22988 15.2022 2.34735 15.4127 2.55644C15.6231 2.76553 15.7414 3.04912 15.7414 3.34482C15.7414 3.64052 15.6231 3.92411 15.4127 4.1332C15.2022 4.34229 14.9167 4.45976 14.619 4.45976H9.38103C9.08334 4.45976 8.79785 4.34229 8.58736 4.1332C8.37686 3.92411 8.25861 3.64052 8.25861 3.34482C8.25861 3.04912 8.37686 2.76553 8.58736 2.55644C8.79785 2.34735 9.08334 2.22988 9.38103 2.22988Z" fill="#CAC4D0"/>
</svg>
