<svg width="62" height="62" viewBox="0 0 62 62" fill="none" xmlns="http://www.w3.org/2000/svg">
<path d="M0 10.5682C0 7.76533 1.11343 5.07727 3.09535 3.09535C5.07727 1.11343 7.76533 0 10.5682 0H20.4346C20.9952 0 21.5328 0.222686 21.9292 0.619069C22.3256 1.01545 22.5483 1.55307 22.5483 2.11364C22.5483 2.67421 22.3256 3.21182 21.9292 3.6082C21.5328 4.00459 20.9952 4.22727 20.4346 4.22727H10.5682C8.88647 4.22727 7.27363 4.89533 6.08448 6.08448C4.89533 7.27363 4.22727 8.88647 4.22727 10.5682V20.4318C4.22727 20.9924 4.00459 21.53 3.6082 21.9264C3.21182 22.3228 2.67421 22.5455 2.11364 22.5455C1.55307 22.5455 1.01545 22.3228 0.619069 21.9264C0.222686 21.53 0 20.9924 0 20.4318V10.5682ZM39.4545 2.11364C39.4545 1.55307 39.6772 1.01545 40.0736 0.619069C40.47 0.222686 41.0076 0 41.5682 0H51.4318C54.2347 0 56.9227 1.11343 58.9047 3.09535C60.8866 5.07727 62 7.76533 62 10.5682V20.4318C62 20.9924 61.7773 21.53 61.3809 21.9264C60.9845 22.3228 60.4469 22.5455 59.8864 22.5455C59.3258 22.5455 58.7882 22.3228 58.3918 21.9264C57.9954 21.53 57.7727 20.9924 57.7727 20.4318V10.5682C57.7727 8.88647 57.1047 7.27363 55.9155 6.08448C54.7264 4.89533 53.1135 4.22727 51.4318 4.22727H41.5682C41.0076 4.22727 40.47 4.00459 40.0736 3.6082C39.6772 3.21182 39.4545 2.67421 39.4545 2.11364ZM2.11364 39.4545C2.67421 39.4545 3.21182 39.6772 3.6082 40.0736C4.00459 40.47 4.22727 41.0076 4.22727 41.5682V51.4318C4.22727 53.1135 4.89533 54.7264 6.08448 55.9155C7.27363 57.1047 8.88647 57.7727 10.5682 57.7727H20.4318C20.9924 57.7727 21.53 57.9954 21.9264 58.3918C22.3228 58.7882 22.5455 59.3258 22.5455 59.8864C22.5455 60.4469 22.3228 60.9845 21.9264 61.3809C21.53 61.7773 20.9924 62 20.4318 62H10.5682C7.76533 62 5.07727 60.8866 3.09535 58.9047C1.11343 56.9227 0 54.2347 0 51.4318V41.5682C0 41.0076 0.222686 40.47 0.619069 40.0736C1.01545 39.6772 1.55307 39.4545 2.11364 39.4545ZM59.8864 39.4545C60.4469 39.4545 60.9845 39.6772 61.3809 40.0736C61.7773 40.47 62 41.0076 62 41.5682V51.4318C62 54.2347 60.8866 56.9227 58.9047 58.9047C56.9227 60.8866 54.2347 62 51.4318 62H41.5682C41.0076 62 40.47 61.7773 40.0736 61.3809C39.6772 60.9845 39.4545 60.4469 39.4545 59.8864C39.4545 59.3258 39.6772 58.7882 40.0736 58.3918C40.47 57.9954 41.0076 57.7727 41.5682 57.7727H51.4318C53.1135 57.7727 54.7264 57.1047 55.9155 55.9155C57.1047 54.7264 57.7727 53.1135 57.7727 51.4318V41.5682C57.7727 41.0076 57.9954 40.47 58.3918 40.0736C58.7882 39.6772 59.3258 39.4545 59.8864 39.4545ZM31 36.6364C32.4949 36.6364 33.9285 36.0425 34.9855 34.9855C36.0425 33.9285 36.6364 32.4949 36.6364 31C36.6364 29.5051 36.0425 28.0715 34.9855 27.0145C33.9285 25.9575 32.4949 25.3636 31 25.3636C29.5051 25.3636 28.0715 25.9575 27.0145 27.0145C25.9575 28.0715 25.3636 29.5051 25.3636 31C25.3636 32.4949 25.9575 33.9285 27.0145 34.9855C28.0715 36.0425 29.5051 36.6364 31 36.6364ZM27.1053 14.0909C26.3198 14.0909 25.5499 14.3098 24.8818 14.723C24.2138 15.1361 23.6741 15.7272 23.3233 16.43L21.6746 19.7273H19.7273C18.2324 19.7273 16.7988 20.3211 15.7418 21.3781C14.6847 22.4351 14.0909 23.8688 14.0909 25.3636V39.4545C14.0909 40.9494 14.6847 42.383 15.7418 43.4401C16.7988 44.4971 18.2324 45.0909 19.7273 45.0909H42.2727C43.7676 45.0909 45.2012 44.4971 46.2582 43.4401C47.3153 42.383 47.9091 40.9494 47.9091 39.4545V25.3636C47.9091 23.8688 47.3153 22.4351 46.2582 21.3781C45.2012 20.3211 43.7676 19.7273 42.2727 19.7273H40.3254L38.6767 16.43C38.3259 15.7272 37.7862 15.1361 37.1182 14.723C36.4501 14.3098 35.6802 14.0909 34.8947 14.0909H27.1053ZM31 22.5455C32.1103 22.5455 33.2097 22.7641 34.2354 23.189C35.2612 23.6139 36.1932 24.2367 36.9783 25.0217C37.7633 25.8068 38.3861 26.7388 38.811 27.7646C39.2359 28.7903 39.4545 29.8897 39.4545 31C39.4545 32.1103 39.2359 33.2097 38.811 34.2354C38.3861 35.2612 37.7633 36.1932 36.9783 36.9783C36.1932 37.7633 35.2612 38.3861 34.2354 38.811C33.2097 39.2359 32.1103 39.4545 31 39.4545C28.7577 39.4545 26.6073 38.5638 25.0217 36.9783C23.4362 35.3927 22.5455 33.2423 22.5455 31C22.5455 28.7577 23.4362 26.6073 25.0217 25.0217C26.6073 23.4362 28.7577 22.5455 31 22.5455Z" fill="#EDEDED"/>
</svg>
