<svg width="30" height="29" viewBox="0 0 30 29" fill="none" xmlns="http://www.w3.org/2000/svg">
<path d="M15 14.5C16.9228 14.5 18.7669 13.7362 20.1265 12.3765C21.4862 11.0169 22.25 9.17282 22.25 7.25C22.25 5.32718 21.4862 3.48311 20.1265 2.12348C18.7669 0.763837 16.9228 0 15 0C13.0772 0 11.2331 0.763837 9.87348 2.12348C8.51384 3.48311 7.75 5.32718 7.75 7.25C7.75 9.17282 8.51384 11.0169 9.87348 12.3765C11.2331 13.7362 13.0772 14.5 15 14.5ZM19.8333 7.25C19.8333 8.53188 19.3241 9.76126 18.4177 10.6677C17.5113 11.5741 16.2819 12.0833 15 12.0833C13.7181 12.0833 12.4887 11.5741 11.5823 10.6677C10.6759 9.76126 10.1667 8.53188 10.1667 7.25C10.1667 5.96812 10.6759 4.73874 11.5823 3.83232C12.4887 2.92589 13.7181 2.41667 15 2.41667C16.2819 2.41667 17.5113 2.92589 18.4177 3.83232C19.3241 4.73874 19.8333 5.96812 19.8333 7.25ZM29.5 26.5833C29.5 29 27.0833 29 27.0833 29H2.91667C2.91667 29 0.5 29 0.5 26.5833C0.5 24.1667 2.91667 16.9167 15 16.9167C27.0833 16.9167 29.5 24.1667 29.5 26.5833ZM27.0833 26.5737C27.0809 25.9792 26.7112 24.1908 25.0727 22.5523C23.497 20.9767 20.5318 19.3333 15 19.3333C9.46583 19.3333 6.503 20.9767 4.92733 22.5523C3.28883 24.1908 2.9215 25.9792 2.91667 26.5737H27.0833Z" fill="#CAC4D0"/>
</svg>
