<svg width="19" height="19" viewBox="0 0 19 19" fill="none" xmlns="http://www.w3.org/2000/svg">
<circle cx="9.5" cy="9.5" r="9.5" fill="#FFE926"/>
<path d="M7.58854 7.52083H5.15104C5.00738 7.52083 4.86961 7.46376 4.76803 7.36218C4.66644 7.2606 4.60938 7.12283 4.60938 6.97917V4.54167C4.60938 4.39801 4.66644 4.26023 4.76803 4.15865C4.86961 4.05707 5.00738 4 5.15104 4C5.2947 4 5.43248 4.05707 5.53406 4.15865C5.63564 4.26023 5.69271 4.39801 5.69271 4.54167V6.4375H7.58854C7.7322 6.4375 7.86998 6.49457 7.97156 6.59615C8.07314 6.69773 8.13021 6.83551 8.13021 6.97917C8.13021 7.12283 8.07314 7.2606 7.97156 7.36218C7.86998 7.46376 7.7322 7.52083 7.58854 7.52083Z" fill="black"/>
<path d="M14.2917 9.95833C14.148 9.95833 14.0102 9.90126 13.9087 9.79968C13.8071 9.69809 13.75 9.56032 13.75 9.41666C13.7504 8.46308 13.4361 7.53602 12.8558 6.77934C12.2755 6.02267 11.4616 5.47869 10.5405 5.23181C9.61947 4.98494 8.64267 5.04897 7.76171 5.41399C6.88075 5.779 6.1449 6.42457 5.66834 7.25054C5.59637 7.37487 5.47795 7.46553 5.33914 7.50255C5.20033 7.53958 5.05249 7.51995 4.92815 7.44797C4.80382 7.376 4.71316 7.25758 4.67614 7.11877C4.63911 6.97996 4.65874 6.83212 4.73072 6.70779C5.32669 5.6755 6.24667 4.86874 7.34795 4.41268C8.44922 3.95662 9.67023 3.87675 10.8215 4.18545C11.9728 4.49416 12.9901 5.17419 13.7155 6.12004C14.4408 7.06589 14.8338 8.22469 14.8333 9.41666C14.8333 9.56032 14.7763 9.69809 14.6747 9.79968C14.5731 9.90126 14.4353 9.95833 14.2917 9.95833ZM13.6823 14.8333C13.5386 14.8333 13.4009 14.7763 13.2993 14.6747C13.1977 14.5731 13.1406 14.4353 13.1406 14.2917V12.3958H11.2448C11.1011 12.3958 10.9634 12.3388 10.8618 12.2372C10.7602 12.1356 10.7031 11.9978 10.7031 11.8542C10.7031 11.7105 10.7602 11.5727 10.8618 11.4711C10.9634 11.3696 11.1011 11.3125 11.2448 11.3125H13.6823C13.826 11.3125 13.9637 11.3696 14.0653 11.4711C14.1669 11.5727 14.224 11.7105 14.224 11.8542V14.2917C14.224 14.4353 14.1669 14.5731 14.0653 14.6747C13.9637 14.7763 13.826 14.8333 13.6823 14.8333Z" fill="black"/>
<path d="M9.41667 14.8333C7.98061 14.8316 6.60385 14.2604 5.5884 13.2449C4.57296 12.2295 4.00172 10.8527 4 9.41667C4 9.27301 4.05707 9.13523 4.15865 9.03365C4.26023 8.93207 4.39801 8.875 4.54167 8.875C4.68533 8.875 4.8231 8.93207 4.92468 9.03365C5.02627 9.13523 5.08333 9.27301 5.08333 9.41667C5.08292 10.3703 5.39726 11.2973 5.97757 12.054C6.55789 12.8107 7.37172 13.3546 8.2928 13.6015C9.21387 13.8484 10.1907 13.7844 11.0716 13.4193C11.9526 13.0543 12.6884 12.4088 13.165 11.5828C13.2006 11.5212 13.2481 11.4673 13.3045 11.424C13.361 11.3808 13.4255 11.3491 13.4942 11.3308C13.5629 11.3124 13.6346 11.3078 13.7051 11.3172C13.7756 11.3266 13.8436 11.3497 13.9052 11.3854C13.9668 11.421 14.0207 11.4684 14.0639 11.5249C14.1072 11.5814 14.1389 11.6458 14.1572 11.7146C14.1755 11.7833 14.1802 11.855 14.1708 11.9255C14.1614 11.996 14.1383 12.064 14.1026 12.1255C13.6262 12.947 12.9429 13.6292 12.1207 14.1043C11.2986 14.5794 10.3662 14.8308 9.41667 14.8333Z" fill="black"/>
</svg>
